<?xml version="1.0" encoding="us-ascii" standalone="no"?><svg xmlns="http://www.w3.org/2000/svg" xmlns:xlink="http://www.w3.org/1999/xlink" contentStyleType="text/css" height="185px" preserveAspectRatio="none" style="width:570px;height:185px;background:#FFFFFF;" version="1.1" viewBox="0 0 570 185" width="570px" zoomAndPan="magnify"><defs/><g><!--class users--><g id="elem_users"><rect codeLine="3" fill="#F1F1F1" height="136.0469" id="users" rx="2.5" ry="2.5" style="stroke:#181818;stroke-width:0.5;" width="122" x="7" y="24.5"/><ellipse cx="46.75" cy="40.5" fill="#ADD1B2" rx="11" ry="11" style="stroke:#181818;stroke-width:1.0;"/><path d="M45.6094,41.2969 L45.6094,43.7969 L49.9375,43.7969 L49.9375,42.875 Q49.9375,42.2656 50.1719,42 Q50.4219,41.7344 50.7969,41.7344 Q51.1719,41.7344 51.4063,42 Q51.6406,42.2656 51.6406,42.875 L51.6406,45.5 L43.6406,45.5 Q43.0156,45.5 42.75,45.2656 Q42.5,45.0313 42.5,44.6406 Q42.5,44.2656 42.7656,44.0313 Q43.0313,43.7969 43.6406,43.7969 L43.9063,43.7969 L43.9063,37.1406 L43.6406,37.1406 Q43.0156,37.1406 42.75,36.9063 Q42.5,36.6719 42.5,36.2813 Q42.5,35.9063 42.75,35.6719 Q43.0156,35.4375 43.6406,35.4375 L51.2656,35.4375 L51.2656,38.0313 Q51.2656,38.6406 51.0313,38.9063 Q50.8125,39.1563 50.4219,39.1563 Q50.0469,39.1563 49.8125,38.9063 Q49.5781,38.6406 49.5781,38.0313 L49.5781,37.1406 L45.6094,37.1406 L45.6094,39.5938 L47.0938,39.5938 Q47.0938,38.9375 47.2188,38.75 Q47.4844,38.3438 47.9531,38.3438 Q48.3281,38.3438 48.5625,38.6094 Q48.7969,38.8594 48.7969,39.4688 L48.7969,41.4375 Q48.7969,41.9844 48.6719,42.1719 Q48.4063,42.5625 47.9531,42.5625 Q47.4844,42.5625 47.2188,42.1563 Q47.0938,41.9688 47.0938,41.2969 L45.6094,41.2969 Z " fill="#000000"/><text fill="#000000" font-family="sans-serif" font-size="14" lengthAdjust="spacing" textLength="35" x="66.25" y="46.2285">users</text><line style="stroke:#181818;stroke-width:0.5;" x1="8" x2="128" y1="56.5" y2="56.5"/><ellipse cx="18" cy="70.8047" fill="none" rx="3" ry="3" style="stroke:#038048;stroke-width:1.0;"/><text fill="#000000" font-family="sans-serif" font-size="14" lengthAdjust="spacing" textLength="38" x="27" y="75.0332">id : int</text><line style="stroke:#181818;stroke-width:1.0;" x1="8" x2="128" y1="82.1094" y2="82.1094"/><text fill="#000000" font-family="sans-serif" font-size="14" lengthAdjust="spacing" textLength="110" x="13" y="100.6426">username : string</text><text fill="#000000" font-family="sans-serif" font-size="14" lengthAdjust="spacing" textLength="107" x="13" y="118.252">password : string</text><text fill="#000000" font-family="sans-serif" font-size="14" lengthAdjust="spacing" textLength="101" x="13" y="135.8613">createdAt : date</text><text fill="#000000" font-family="sans-serif" font-size="14" lengthAdjust="spacing" textLength="105" x="13" y="153.4707">updatedAt : date</text></g><!--class inventories--><g id="elem_inventories"><rect codeLine="12" fill="#F1F1F1" height="136.0469" id="inventories" rx="2.5" ry="2.5" style="stroke:#181818;stroke-width:0.5;" width="117" x="214" y="24.5"/><ellipse cx="236.2" cy="40.5" fill="#ADD1B2" rx="11" ry="11" style="stroke:#181818;stroke-width:1.0;"/><path d="M235.0594,41.2969 L235.0594,43.7969 L239.3875,43.7969 L239.3875,42.875 Q239.3875,42.2656 239.6219,42 Q239.8719,41.7344 240.2469,41.7344 Q240.6219,41.7344 240.8563,42 Q241.0906,42.2656 241.0906,42.875 L241.0906,45.5 L233.0906,45.5 Q232.4656,45.5 232.2,45.2656 Q231.95,45.0313 231.95,44.6406 Q231.95,44.2656 232.2156,44.0313 Q232.4813,43.7969 233.0906,43.7969 L233.3563,43.7969 L233.3563,37.1406 L233.0906,37.1406 Q232.4656,37.1406 232.2,36.9063 Q231.95,36.6719 231.95,36.2813 Q231.95,35.9063 232.2,35.6719 Q232.4656,35.4375 233.0906,35.4375 L240.7156,35.4375 L240.7156,38.0313 Q240.7156,38.6406 240.4813,38.9063 Q240.2625,39.1563 239.8719,39.1563 Q239.4969,39.1563 239.2625,38.9063 Q239.0281,38.6406 239.0281,38.0313 L239.0281,37.1406 L235.0594,37.1406 L235.0594,39.5938 L236.5438,39.5938 Q236.5438,38.9375 236.6688,38.75 Q236.9344,38.3438 237.4031,38.3438 Q237.7781,38.3438 238.0125,38.6094 Q238.2469,38.8594 238.2469,39.4688 L238.2469,41.4375 Q238.2469,41.9844 238.1219,42.1719 Q237.8563,42.5625 237.4031,42.5625 Q236.9344,42.5625 236.6688,42.1563 Q236.5438,41.9688 236.5438,41.2969 L235.0594,41.2969 Z " fill="#000000"/><text fill="#000000" font-family="sans-serif" font-size="14" lengthAdjust="spacing" textLength="69" x="251.8" y="46.2285">inventories</text><line style="stroke:#181818;stroke-width:0.5;" x1="215" x2="330" y1="56.5" y2="56.5"/><ellipse cx="225" cy="70.8047" fill="none" rx="3" ry="3" style="stroke:#038048;stroke-width:1.0;"/><text fill="#000000" font-family="sans-serif" font-size="14" lengthAdjust="spacing" textLength="38" x="234" y="75.0332">id : int</text><ellipse cx="225" cy="88.4141" fill="none" rx="3" ry="3" style="stroke:#038048;stroke-width:1.0;"/><text fill="#000000" font-family="sans-serif" font-size="14" font-style="italic" lengthAdjust="spacing" textLength="40" x="234" y="92.6426">userId</text><text fill="#000000" font-family="sans-serif" font-size="14" lengthAdjust="spacing" textLength="23" x="278" y="92.6426">: int</text><line style="stroke:#181818;stroke-width:1.0;" x1="215" x2="330" y1="99.7188" y2="99.7188"/><text fill="#000000" font-family="sans-serif" font-size="14" lengthAdjust="spacing" textLength="105" x="220" y="118.252">inventory : string</text><text fill="#000000" font-family="sans-serif" font-size="14" lengthAdjust="spacing" textLength="101" x="220" y="135.8613">createdAt : date</text><text fill="#000000" font-family="sans-serif" font-size="14" lengthAdjust="spacing" textLength="105" x="220" y="153.4707">updatedAt : date</text></g><!--class products--><g id="elem_products"><rect codeLine="21" fill="#F1F1F1" height="171.2656" id="products" rx="2.5" ry="2.5" style="stroke:#181818;stroke-width:0.5;" width="128" x="435" y="7"/><ellipse cx="468.45" cy="23" fill="#ADD1B2" rx="11" ry="11" style="stroke:#181818;stroke-width:1.0;"/><path d="M467.3094,23.7969 L467.3094,26.2969 L471.6375,26.2969 L471.6375,25.375 Q471.6375,24.7656 471.8719,24.5 Q472.1219,24.2344 472.4969,24.2344 Q472.8719,24.2344 473.1063,24.5 Q473.3406,24.7656 473.3406,25.375 L473.3406,28 L465.3406,28 Q464.7156,28 464.45,27.7656 Q464.2,27.5313 464.2,27.1406 Q464.2,26.7656 464.4656,26.5313 Q464.7313,26.2969 465.3406,26.2969 L465.6063,26.2969 L465.6063,19.6406 L465.3406,19.6406 Q464.7156,19.6406 464.45,19.4063 Q464.2,19.1719 464.2,18.7813 Q464.2,18.4063 464.45,18.1719 Q464.7156,17.9375 465.3406,17.9375 L472.9656,17.9375 L472.9656,20.5313 Q472.9656,21.1406 472.7313,21.4063 Q472.5125,21.6563 472.1219,21.6563 Q471.7469,21.6563 471.5125,21.4063 Q471.2781,21.1406 471.2781,20.5313 L471.2781,19.6406 L467.3094,19.6406 L467.3094,22.0938 L468.7938,22.0938 Q468.7938,21.4375 468.9188,21.25 Q469.1844,20.8438 469.6531,20.8438 Q470.0281,20.8438 470.2625,21.1094 Q470.4969,21.3594 470.4969,21.9688 L470.4969,23.9375 Q470.4969,24.4844 470.3719,24.6719 Q470.1063,25.0625 469.6531,25.0625 Q469.1844,25.0625 468.9188,24.6563 Q468.7938,24.4688 468.7938,23.7969 L467.3094,23.7969 Z " fill="#000000"/><text fill="#000000" font-family="sans-serif" font-size="14" lengthAdjust="spacing" textLength="55" x="486.55" y="28.7285">products</text><line style="stroke:#181818;stroke-width:0.5;" x1="436" x2="562" y1="39" y2="39"/><ellipse cx="446" cy="53.3047" fill="none" rx="3" ry="3" style="stroke:#038048;stroke-width:1.0;"/><text fill="#000000" font-family="sans-serif" font-size="14" lengthAdjust="spacing" textLength="38" x="455" y="57.5332">id : int</text><ellipse cx="446" cy="70.9141" fill="none" rx="3" ry="3" style="stroke:#038048;stroke-width:1.0;"/><text fill="#000000" font-family="sans-serif" font-size="14" font-style="italic" lengthAdjust="spacing" textLength="69" x="455" y="75.1426">inventoryId</text><text fill="#000000" font-family="sans-serif" font-size="14" lengthAdjust="spacing" textLength="23" x="528" y="75.1426">: int</text><line style="stroke:#181818;stroke-width:1.0;" x1="436" x2="562" y1="82.2188" y2="82.2188"/><text fill="#000000" font-family="sans-serif" font-size="14" lengthAdjust="spacing" textLength="95" x="441" y="100.752">product : string</text><text fill="#000000" font-family="sans-serif" font-size="14" lengthAdjust="spacing" textLength="116" x="441" y="118.3613">description : string</text><text fill="#000000" font-family="sans-serif" font-size="14" lengthAdjust="spacing" textLength="77" x="441" y="135.9707">quantity : int</text><text fill="#000000" font-family="sans-serif" font-size="14" lengthAdjust="spacing" textLength="101" x="441" y="153.5801">createdAt : date</text><text fill="#000000" font-family="sans-serif" font-size="14" lengthAdjust="spacing" textLength="105" x="441" y="171.1895">updatedAt : date</text></g><!--link users to inventories--><g id="link_users_inventories"><path codeLine="32" d="M137.21,92.5 C164.02,92.5 169.46,92.5 195.96,92.5 " fill="none" id="users-inventories" style="stroke:#181818;stroke-width:1.0;"/><line style="stroke:#181818;stroke-width:1.0;" x1="133.21" x2="133.21" y1="96.5" y2="88.5"/><line style="stroke:#181818;stroke-width:1.0;" x1="136.21" x2="136.21" y1="96.5" y2="88.5"/><line style="stroke:#181818;stroke-width:1.0;" x1="137.21" x2="129.21" y1="92.5" y2="92.5"/><line style="stroke:#181818;stroke-width:1.0;" x1="205.96" x2="213.96" y1="92.5" y2="86.5"/><line style="stroke:#181818;stroke-width:1.0;" x1="205.96" x2="213.96" y1="92.5" y2="98.5"/><line style="stroke:#181818;stroke-width:1.0;" x1="205.96" x2="213.96" y1="92.5" y2="92.5"/><ellipse cx="199.96" cy="92.5" fill="none" rx="4" ry="4" style="stroke:#181818;stroke-width:1.0;"/><text fill="#000000" font-family="sans-serif" font-size="13" lengthAdjust="spacing" textLength="23" x="160" y="88.9951">own</text></g><!--link inventories to products--><g id="link_inventories_products"><path codeLine="33" d="M339.02,92.5 C370.72,92.5 384.13,92.5 416.7,92.5 " fill="none" id="inventories-products" style="stroke:#181818;stroke-width:1.0;"/><line style="stroke:#181818;stroke-width:1.0;" x1="335.02" x2="335.02" y1="96.5" y2="88.5"/><line style="stroke:#181818;stroke-width:1.0;" x1="338.02" x2="338.02" y1="96.5" y2="88.5"/><line style="stroke:#181818;stroke-width:1.0;" x1="339.02" x2="331.02" y1="92.5" y2="92.5"/><line style="stroke:#181818;stroke-width:1.0;" x1="426.7" x2="434.7" y1="92.5" y2="86.5"/><line style="stroke:#181818;stroke-width:1.0;" x1="426.7" x2="434.7" y1="92.5" y2="98.5"/><line style="stroke:#181818;stroke-width:1.0;" x1="426.7" x2="434.7" y1="92.5" y2="92.5"/><ellipse cx="420.7" cy="92.5" fill="none" rx="4" ry="4" style="stroke:#181818;stroke-width:1.0;"/><text fill="#000000" font-family="sans-serif" font-size="13" lengthAdjust="spacing" textLength="42" x="362" y="88.9951">contain</text></g><!--SRC=[fP4z3i8m38NtdC8xghftO-GOKMp04ZZ5SK48k3lf3uK8a9384kV5zllYx6XjO16KDri3PALW7CKv4cCxGvT84rmSvBLWX0POR3XLrR3r2UBtb6-IASjcK5kVqYagbcfGyaQuj2nZZiO6BPRYRJPdEUOeAjDdX4LTz_OhhEjti4Vn-J-6LYDsmRu2p3QVAQRoaW4f1UMs7tHvSUZywFhiypFl-5FNQrN5Ip6v1k99tAio9SrFQo14CS_YxW00]--></g></svg>